<svg xmlns="http://www.w3.org/2000/svg" width="24" height="24" viewBox="0 0 24 24"><path fill="currentColor" d="M21.33 19.035a2.57 2.57 0 0 1-.884 1.432a5.25 5.25 0 0 1-3.738 1.564h-.325a11 11 0 0 1-4.205-1.087h-.01c-.305-.142-.62-.284-.925-.457a19 19 0 0 1-4.185-3.18a18.2 18.2 0 0 1-3.9-5.292A11.7 11.7 0 0 1 2.14 8.572a6.4 6.4 0 0 1 .407-3.708a6.8 6.8 0 0 1 1.148-1.432A2.2 2.2 0 0 1 5.29 2.69a2.5 2.5 0 0 1 1.687.935c.457.497 1.015 1.015 1.473 1.493l.63.62c.37.328.599.786.64 1.28c0 .453-.167.89-.468 1.229a9 9 0 0 1-.62.68l-.203.213c-.118.11-.208.246-.264.397q-.075.223-.06.457c.161.431.414.823.74 1.148c.509.69 1.017 1.29 1.535 1.94a12.9 12.9 0 0 0 3.29 2.733c.127.093.273.155.428.182c.134.01.27-.01.396-.06c.355-.209.67-.477.934-.793a2.17 2.17 0 0 1 1.422-.782a2.03 2.03 0 0 1 1.423.61c.203.172.426.406.64.63l.304.314l.315.305l.539.548q.482.428.904.915c.282.39.409.872.355 1.35m-3.646-6.958a.77.77 0 0 1-.762-.762a4.37 4.37 0 0 0-4.378-4.378a.762.762 0 0 1 0-1.524a5.893 5.893 0 0 1 5.902 5.902a.76.76 0 0 1-.762.762"/><path fill="currentColor" d="M21.209 11.72a.77.77 0 0 1-.762-.761a7.455 7.455 0 0 0-7.456-7.467a.762.762 0 1 1 0-1.523a8.98 8.98 0 0 1 8.98 8.99a.76.76 0 0 1-.762.762"/></svg>