<svg xmlns="http://www.w3.org/2000/svg" width="24" height="24" viewBox="0 0 24 24"><rect width="24" height="24" fill="none"/><path fill="currentColor" d="M14 3a3 3 0 0 1 3 3h3a2 2 0 0 1 2 2v11a2 2 0 0 1-2 2H4a2 2 0 0 1-2-2V8a2 2 0 0 1 2-2h3a3 3 0 0 1 3-3z" class="duoicon-secondary-layer" opacity="0.3"/><path fill="currentColor" d="M14 5h-4a1 1 0 0 0-.993.883L9 6h6a1 1 0 0 0-.883-.993zm5 5H5a1 1 0 0 0-.117 1.993L5 12h6v1a1 1 0 0 0 1.993.117L13 13v-1h6a1 1 0 0 0 .117-1.993z" class="duoicon-primary-layer"/></svg>