<svg xmlns="http://www.w3.org/2000/svg" width="48" height="48" viewBox="0 0 48 48"><path fill="currentColor" fill-rule="evenodd" d="M9.646 2.191C12.526 1.855 17.181 1.5 24 1.5c1.985 0 3.787.03 5.415.081a1.5 1.5 0 0 1 .399.067c1.146.357 4.227 1.633 8.538 5.837c4.062 3.961 5.464 6.864 5.923 8.135q.078.22.088.453c.084 2.261.137 4.89.137 7.927c0 8.11-.377 13.307-.726 16.384c-.33 2.899-2.532 5.088-5.42 5.425c-2.88.336-7.536.691-14.354.691s-11.475-.355-14.354-.691c-2.888-.337-5.09-2.526-5.42-5.425C3.876 37.307 3.5 32.11 3.5 24s.377-13.307.726-16.384c.33-2.899 2.532-5.088 5.42-5.425M13 39.75a1.75 1.75 0 1 1 0-3.5h22a1.75 1.75 0 1 1 0 3.5zM11.25 31c0-.966.784-1.75 1.75-1.75h22a1.75 1.75 0 1 1 0 3.5H13A1.75 1.75 0 0 1 11.25 31m16.197-19.796a26.6 26.6 0 0 1 5.718-.44a2.14 2.14 0 0 1 2.072 2.071a26.7 26.7 0 0 1-.441 5.718c-.346 1.826-2.526 2.303-3.717 1.113l-1.139-1.14l-.236.207a36 36 0 0 0-1.099 1.008c-.898.86-2.027 2.023-3.002 3.28c-.734.946-1.868 1.222-2.792 1.08c-.931-.145-1.963-.77-2.33-1.974c-.366-1.194-.83-2.577-1.316-3.704c-1.054.795-2.719 2.375-4.7 5.403a1.75 1.75 0 0 1-2.93-1.916c2.689-4.108 5.01-6.032 6.445-6.914c1.509-.926 3.3-.246 4.006 1.186c.568 1.152 1.093 2.596 1.511 3.877a37 37 0 0 1 2.69-2.847c.486-.466.906-.844 1.205-1.107l.067-.06l-1.124-1.124c-1.191-1.19-.714-3.37 1.112-3.717" clip-rule="evenodd"/></svg>